<svg data-name="Layer 1" xmlns="http://www.w3.org/2000/svg" viewBox="0 0 36 36" class="ico"><defs><linearGradient id="a" x1="18" x2="18" y2="36" gradientTransform="matrix(1 0 0 -1 0 36)" gradientUnits="userSpaceOnUse"><stop offset="0" stop-color="#9f2fff"/><stop offset="1" stop-color="#0377be"/></linearGradient></defs><g data-name="Layer 2"><path d="M18 0a18 18 0 1018 18A18 18 0 0018 0zm0 32.52A14.52 14.52 0 1132.52 18 14.52 14.52 0 0118 32.52zm7.39-19L20.87 18l4.52 4.51a.88.88 0 010 1.24l-1.64 1.64a.87.87 0 01-1.23 0L18 20.87l-4.51 4.52a.88.88 0 01-1.24 0l-1.64-1.64a.87.87 0 010-1.23L15.13 18l-4.52-4.51a.88.88 0 010-1.24l1.64-1.64a.87.87 0 011.23 0L18 15.13l4.51-4.52a.88.88 0 011.24 0l1.64 1.64a.87.87 0 010 1.23z" fill="url(#a)" data-name="Layer 1-2"/></g></svg>